<svg fill="none" viewBox="0 0 147 48" width="147" xmlns="http://www.w3.org/2000/svg"><path d="m135.16 0h-123.4588c-.4501 0-.8947 0-1.3438 0-.37556 0-.74832.00900023-1.12753.0153004-.82416.0101177-1.64633.0817274-2.45934.2142056-.81161.135064-1.59784.388706-2.33231.752419-.73343.367975-1.40383.845295-1.98717 1.414835-.58541.5684-1.07362 1.22508-1.44596 1.94495-.372724.71892-.631257 1.48918-.766704 2.28426-.136256.79431-.209799 1.5977-.2199778 2.40306-.01104492.3672-.01196533.73711-.0184082 1.10437v27.7386c.00644287.3727.00736328.7336.0184082 1.1062.0101386.805.0836818 1.6081.2199778 2.4021.135118.7955.393666 1.5661.766704 2.2852.3719.718.8602 1.3723 1.44596 1.9377.58054.5725 1.2515 1.0499 1.98717 1.414.73422.3654 1.52044.6209 2.33231.7578.8132.1307 1.6353.2014 2.45934.2115.37921.0081.75197.0135 1.12753.0135h1.3438 123.4588 1.331c.374 0 .758-.0054 1.131-.0135.823-.0101 1.643-.0808 2.455-.2115.815-.1379 1.604-.3933 2.342-.7578.734-.3644 1.404-.8418 1.984-1.414.585-.5673 1.074-1.2213 1.451-1.9377.37-.7195.626-1.4901.759-2.2852.137-.794.213-1.597.228-2.4021.005-.3726.005-.7335.005-1.1062.009-.4365.009-.8694.009-1.3131v-25.1106c0-.4392 0-.8748-.009-1.3104 0-.36726 0-.73717-.005-1.10437-.015-.80546-.091-1.60872-.228-2.40306-.133-.79461-.39-1.5648-.759-2.28426-.758-1.44318-1.96-2.61806-3.435-3.359785-.738-.364282-1.527-.619372-2.342-.756919-.811-.132007-1.632-.2027177-2.455-.2115056-.373-.0063001-.757-.01350029-1.131-.0180004-.442 0-.89 0-1.331 0z" fill="#808080"/><path d="m10.364 46.9527c-.3737 0-.73634-.0054-1.11002-.0135-.76844-.0097-1.53509-.075-2.29366-.1953-.70736-.1195-1.39259-.3412-2.03319-.6579-.63489-.3138-1.21389-.7256-1.71472-1.2196-.50785-.4882-.93068-1.0542-1.25176-1.6758-.32483-.6258-.54956-1.2966-.66638-1.9891-.12694-.7438-.19525-1.496-.20433-2.25-.00828-.2529-.01841-1.0954-.01841-1.0954v-27.7206s.01105-.82897.01841-1.07287c.00919-.75395.07688-1.50613.20249-2.25006.11752-.69439.34254-1.36723.6673-1.99535.32037-.62012.74087-1.18569 1.24531-1.67494.50474-.49448 1.08548-.9087 1.72117-1.22763.63917-.31627 1.32331-.53683 2.0295-.65432.76096-.12137 1.53008-.18725 2.30103-.1971l1.10446-.0144h126.1238l1.121.0153c.764.00875 1.526.07404 2.28.1953.713.11784 1.404.3393 2.051.65702 1.273.64162 2.31 1.65728 2.963 2.90437.32.62375.542 1.29135.657 1.98005.128.74906.199 1.50618.214 2.26536v1.06747c.009.45.009.8784.009 1.3104v25.1106c0 .4365 0 .8622-.009 1.2906 0 .3907 0 .748-.006 1.1161-.013.7453-.083 1.4886-.208 2.2239-.116.6973-.339 1.3732-.663 2.0044-.324.6148-.745 1.1758-1.247 1.6623-.501.497-1.081.9116-1.718 1.2277-.644.319-1.334.5414-2.047.6597-.758.1208-1.525.1861-2.293.1953-.359.0081-.737.0135-1.105.0135h-1.331z" fill="#000"/><g fill="#fff"><path d="m30.3973 24.3614c.0133-1.0016.2855-1.9836.7911-2.8547s1.2283-1.6031 2.1008-2.1278c-.5546-.7741-1.286-1.4112-2.1363-1.8606-.8503-.4495-1.796-.699-2.7621-.7288-2.0608-.2115-4.059 1.2105-5.1046 1.2105-1.0713 0-2.6876-1.1853-4.429-1.1502-1.1262.0358-2.2238.3562-3.1858.93s-1.7556 1.3815-2.3035 2.3443c-2.3738 4.0177-.6029 9.9236 1.6705 13.1709 1.1376 1.5912 2.4667 3.3678 4.2063 3.3048 1.7028-.0693 2.3378-1.062 4.3931-1.062 2.036 0 2.6324 1.062 4.4069 1.0215 1.827-.0288 2.9776-1.5975 4.0747-3.2031.8174-1.1331 1.4465-2.3855 1.8638-3.7108-1.0627-.4386-1.9696-1.1738-2.6073-2.1136-.6378-.9398-.9782-2.0425-.9786-3.1704z"/><path d="m27.0444 14.6539c.9963-1.1691 1.487-2.6722 1.3677-4.1895-1.5213.1564-2.9265.8675-3.9357 1.9917-.4935.5492-.8715 1.1881-1.1124 1.8803-.2408.6921-.3398 1.4239-.2912 2.1535.7609.0076 1.5136-.1537 2.2016-.4717.6879-.318 1.2931-.7845 1.77-1.3643z"/><path d="m51.9111 32.5684h-5.8059l-1.3944 4.0276h-2.464l5.5022-14.9017h2.556l5.5023 14.9017h-2.499zm-5.2076-1.8585h4.602l-2.2697-6.5369h-.0635z"/><path d="m67.6935 31.1652c0 3.376-1.8481 5.546-4.637 5.546-.7068.0362-1.4097-.123-2.0283-.4593-.6186-.3364-1.1278-.8363-1.4693-1.4425h-.0524v5.3822h-2.279v-14.4598h2.209v1.809h.0424c.357-.603.8746-1.1001 1.4976-1.4383.623-.3383 1.3282-.5049 2.0404-.4823 2.8183-.0018 4.6766 2.1781 4.6766 5.545zm-2.3442 0c0-2.1996-1.1625-3.646-2.9362-3.646-1.7423 0-2.9149 1.477-2.9149 3.646 0 2.1889 1.1726 3.655 2.9149 3.655 1.7737 0 2.9362-1.4355 2.9362-3.655z"/><path d="m79.923 31.1652c0 3.376-1.8482 5.546-4.637 5.546-.7062.0355-1.4083-.1241-2.0262-.4604-.6178-.3363-1.1265-.8358-1.4677-1.4414h-.0552v5.3821h-2.2799v-14.4597h2.209v1.809h.0424c.3569-.6029.8743-1.0999 1.4972-1.4381.6228-.3382 1.3278-.505 2.0399-.4825 2.8183-.0018 4.6775 2.178 4.6775 5.545zm-2.3443 0c0-2.1996-1.1624-3.646-2.9361-3.646-1.7423 0-2.9149 1.477-2.9149 3.646 0 2.1889 1.1726 3.655 2.9149 3.655 1.7737 0 2.9361-1.4355 2.9361-3.655z"/><path d="m88.0051 32.446c.1693 1.4778 1.6374 2.4481 3.6439 2.4481 1.9218 0 3.3051-.9703 3.3051-2.3032 0-1.1565-.8338-1.8486-2.809-2.3238l-1.9752-.4653c-2.799-.6607-4.0977-1.9405-4.0977-4.0168 0-2.5714 2.2918-4.3372 5.5455-4.3372 3.2214 0 5.4304 1.7658 5.5022 4.3372h-2.3011c-.1389-1.4833-1.3971-2.3833-3.2334-2.3833-1.8362 0-3.0944.9081-3.0944 2.2303 0 1.053.8026 1.6731 2.7668 2.1474l1.6788.4032c3.1294.72 4.4263 1.9513 4.4263 4.1311 0 2.7901-2.2716 4.5343-5.8833 4.5343-3.3797 0-5.6614-1.7046-5.8087-4.4002z"/><path d="m102.285 23.1611v2.5705h2.117v1.7667h-2.117v5.9896c0 .9307.423 1.3636 1.351 1.3636.251-.0041.502-.0212.751-.0513v1.7559c-.417.076-.842.1103-1.267.1026-2.25 0-3.1294-.8262-3.1294-2.9332v-6.2272h-1.6154v-1.7667h1.6154v-2.5705z"/><path d="m105.622 31.1648c0-3.4201 2.059-5.5667 5.269-5.5667s5.271 2.1484 5.271 5.5667-2.039 5.5667-5.271 5.5667c-3.233 0-5.269-2.1385-5.269-5.5667zm8.216 0c0-2.3455-1.099-3.7288-2.945-3.7288-1.847 0-2.946 1.3941-2.946 3.7288 0 2.3545 1.098 3.7279 2.946 3.7279s2.945-1.3734 2.945-3.7279z"/><path d="m118.042 25.7318h2.175v1.8496h.053c.147-.5769.493-1.0868.979-1.4442s1.082-.5406 1.69-.5188c.263-.0009.525.0271.782.0837v2.0854c-.332-.0988-.678-.1441-1.025-.1341-.609-.0244-1.204.1888-1.652.5926-.449.4039-.715.9654-.741 1.5612-.005.1153-.001.2309.013.3456v6.4442h-2.274z"/><path d="m134.24 33.4058c-.307 1.9719-2.272 3.3301-4.786 3.3301-3.233 0-5.239-2.1178-5.239-5.5154s2.017-5.618 5.142-5.618c3.074 0 5.008 2.0647 5.008 5.3588v.7641h-7.845v.135c-.034.3702.007.7432.121 1.0978s.298.6838.542.9687c.244.285.543.5201.88.692s.705.2771 1.083.3097c.121.0105.241.0138.362.0099.539.049 1.08-.0734 1.543-.3491.462-.2756.821-.6898 1.023-1.1809zm-7.71-3.2401h5.554c.02-.3427-.029-.6858-.145-1.0098s-.296-.6224-.53-.8782-.517-.464-.834-.6126c-.316-.1486-.659-.2348-1.01-.2535-.068 0-.137-.0054-.206 0-.369-.0021-.736.0669-1.078.2031-.342.1363-.653.3371-.916.591s-.472.5559-.615.8888-.218.6902-.22 1.0514z"/><path d="m46.4216 10.4784c.4786-.0337.9588.037 1.406.207s.8502.435 1.1799.7758c.3297.3409.5777.7491.7264 1.1952.1486.4461.194.9189.1329 1.3843 0 2.2878-1.2647 3.6001-3.4452 3.6001h-2.6452v-7.1624zm-1.5058 6.1471h1.3807c.3416.0201.6835-.0346 1.0008-.1601s.6019-.3186.8332-.5653.4034-.5407.5038-.8607c.1003-.3199.1265-.6578.0764-.9888.0413-.2937.023-.5925-.0539-.8793s-.2107-.556-.394-.7922c-.1832-.2362-.4123-.4347-.674-.5844-.2618-.1496-.5511-.2473-.8515-.2876-.146-.0192-.2937-.0249-.4408-.0171h-1.3807z"/><path d="m51.1518 14.9339c-.0661-.6759.145-1.3498.587-1.8735.4419-.5236 1.0785-.8542 1.7697-.9189s1.3804.1418 1.9159.574.8735 1.0547.9397 1.7305c.0156.1623.0156.3256 0 .4879.0356.3555-.0054.7144-.1202 1.0536s-.3009.6511-.5463.9158c-.2455.2646-.5449.4761-.8789.6208-.3341.1447-.6954.2195-1.0607.2195-.3654 0-.7267-.0748-1.0608-.2195-.334-.1447-.6334-.3562-.8788-.6208-.2455-.2647-.4316-.5766-.5464-.9158s-.1557-.6981-.1202-1.0536zm4.0903 0c0-1.1701-.5384-1.8568-1.4828-1.8568-.9443 0-1.4809.6849-1.4809 1.8568 0 1.1718.5329 1.8603 1.4809 1.8603.9481 0 1.4828-.684 1.4828-1.8603z"/><path d="m63.2919 17.6409h-1.1312l-1.1376-3.9817h-.0921l-1.1358 3.9817h-1.121l-1.5233-5.4002h1.1045l.9903 4.1239h.081l1.1367-4.1239h1.0475l1.1367 4.1239h.0856l.9857-4.1239h1.0907z"/><path d="m66.0908 12.2328h1.0493v.8586h.0819c.1387-.3081.372-.5662.6676-.7386s.6387-.2506.9818-.2235c.2688-.0194.5385.0205.7894.1168.2509.0962.4764.2463.66.4393.1836.1929.3206.4237.4007.6753.0802.2516.1015.5176.0625.7783v3.5002h-1.0907v-3.2329c0-.8685-.3866-1.2996-1.1965-1.2996-.1663-.0076-.3324.0168-.489.072s-.3006.14-.4236.2495c-.1231.1096-.2229.2418-.2937.3891-.0709.1472-.1113.3067-.1191.4693-.0029.0631-.0008.1263.0064.189v3.1636h-1.087z"/><path d="m72.522 10.1245h1.0907v7.5153h-1.0907z"/><path d="m75.1286 14.9339c-.0327-.3347.0024-.6724.1031-.9938.1008-.3214.2653-.6203.4842-.8796.2189-.2592.4879-.4738.7915-.6314.3037-.1576.6362-.2551.9784-.2871.6912-.0646 1.3803.142 1.9157.5742.5355.4323.8734 1.0549.9394 1.7307.0157.162.0157.325 0 .487.0356.3555-.0054.7145-.1202 1.0536-.1148.3392-.3009.6511-.5463.9158-.2455.2646-.5449.4761-.8789.6208s-.6954.2195-1.0607.2195c-.3654 0-.7267-.0748-1.0607-.2195-.3341-.1447-.6335-.3562-.8789-.6208-.2455-.2647-.4316-.5766-.5464-.9158-.1148-.3391-.1557-.6981-.1202-1.0536zm4.0903 0c0-1.1701-.5384-1.8568-1.4827-1.8568-.9444 0-1.481.6849-1.481 1.8568 0 1.1718.5329 1.8603 1.481 1.8603.948 0 1.4827-.684 1.4827-1.8603z"/><path d="m81.4895 16.1111c0-.9729.7363-1.53 2.0553-1.6137l1.4966-.0846v-.4617c0-.5706-.3857-.8928-1.1312-.8928-.6093 0-1.0309.2187-1.1515.6003h-1.0566c.1123-.9279 1.0051-1.5229 2.2587-1.5229 1.3806 0 2.1666.6742 2.1666 1.8154v3.6901h-1.0501v-.7587h-.0866c-.1748.2719-.4202.4937-.7113.6426-.291.1489-.6172.2197-.9454.2052-.4404.0448-.8809-.0832-1.2247-.356-.3438-.2727-.5628-.6679-.6088-1.0985-.0073-.0558-.011-.1107-.011-.1647zm3.5519-.4617v-.45l-1.3494.0837c-.7611.0504-1.1045.3033-1.1045.7794 0 .4762.4317.7696 1.0245.7696.3438.0339.6873-.0671.955-.2807.2677-.2137.4377-.5226.4725-.8588z"/><path d="m87.5605 14.934c0-1.71.8974-2.7901 2.2937-2.7901.3453-.0156.688.0652.9881.2331.3001.1678.5451.4157.7064.7147h.0819v-2.9701h1.0907v7.5188h-1.0484v-.8532h-.0828c-.1738.2971-.4274.5421-.7334.7084-.306.1662-.6527.2475-1.0025.2348-1.4027 0-2.2937-1.08-2.2937-2.7964zm1.1266 0c0 1.1458.5523 1.8361 1.4727 1.8361s1.4873-.7002 1.4873-1.8316c0-1.1313-.5734-1.836-1.4873-1.836-.914 0-1.4727.6948-1.4727 1.8315z"/><path d="m97.2331 14.9339c-.0661-.6759.145-1.3498.587-1.8735.4419-.5236 1.0785-.8542 1.7697-.9189s1.3802.1418 1.9162.574c.535.4322.873 1.0547.939 1.7306.016.1622.016.3255 0 .4878.037.3364.005.6766-.093 1.0009-.099.3243-.262.6263-.48.8886-.219.2623-.488.4796-.793.6395-.305.1598-.639.259-.984.2917-.3441.0328-.6917-.0015-1.0224-.1009-.3307-.0993-.638-.2618-.9041-.4779-.2662-.2162-.4858-.4818-.6464-.7815-.1605-.2997-.2588-.6275-.289-.9645-.0156-.165-.0156-.331 0-.4959zm4.0899 0c0-1.1701-.537-1.8568-1.4815-1.8568-.9443 0-1.4818.6849-1.4818 1.8568 0 1.1718.5338 1.8603 1.4818 1.8603.9485 0 1.4815-.684 1.4815-1.8603z"/><path d="m103.909 12.2328h1.05v.8586h.081c.139-.3081.372-.5662.668-.7386.295-.1724.638-.2506.981-.2235.476-.035.946.116 1.307.4198.362.3038.585.7355.621 1.2002.009.13.004.2607-.015.3897v3.5002h-1.091v-3.2329c0-.8685-.385-1.2996-1.196-1.2996-.166-.0078-.333.0166-.489.0717-.157.0552-.301.14-.424.2495-.123.1096-.223.2419-.294.3892-.07.1474-.111.3069-.119.4695-.003.063-.001.1262.006.189v3.1636h-1.091z"/><path d="m114.764 10.8901v1.3699h1.197v.9h-1.197v2.7784c0 .5661.239.81.782.81.139 0 .278-.0081.416-.0243v.8883c-.196.034-.394.0524-.593.0549-1.213 0-1.696-.4176-1.696-1.4589v-3.0511h-.878v-.9h.878v-1.3672z"/><path d="m117.452 10.1245h1.08v2.9773h.087c.145-.3111.384-.5709.686-.744.302-.1732.65-.2512.999-.2235.239-.0128.478.0206.703.0981.226.0776.433.1978.611.3539.178.156.323.3448.426.5556.103.2107.163.4394.176.6727.007.1115.002.2234-.014.334v3.4912h-1.091v-3.2284c0-.8632-.411-1.2997-1.181-1.2997-.169-.0139-.339.005-.501.0555-.161.0506-.311.1318-.441.2391-.129.1073-.235.2385-.313.3861-.077.1476-.124.3087-.138.4741-.006.0715-.006.1435 0 .2151v3.1582h-1.09z"/><path d="m128.566 16.1788c-.148.4938-.469.9209-.907 1.2067-.437.2858-.963.4121-1.486.3567-.33.0088-.658-.0459-.966-.1612s-.59-.2888-.829-.5107c-.24-.2218-.432-.4877-.566-.7823-.135-.2945-.208-.6121-.217-.9345-.003-.1339.004-.2678.022-.4005-.089-.6551.091-1.3181.501-1.8433.411-.5252 1.017-.8696 1.687-.9576.12-.0157.24-.0229.361-.0216 1.537 0 2.465 1.027 2.465 2.7235v.3726h-3.903v.0594c-.032.3776.09.7523.34 1.0418.251.2894.608.4699.994.5018.046 0 .092.0054.138 0 .261.0306.525-.0154.76-.132.234-.1167.427-.2988.555-.5233zm-3.837-1.7415h2.792c.026-.3448-.089-.6855-.32-.9472-.231-.2618-.559-.4232-.912-.4487-.042-.0023-.086-.0023-.128 0-.374-.0046-.735.1358-1.003.3905s-.422.6029-.429.9685v.0351z"/></g></svg>