<svg fill="none" viewBox="0 0 166 48" xmlns="http://www.w3.org/2000/svg" xmlns:xlink="http://www.w3.org/1999/xlink"><linearGradient id="a" gradientUnits="userSpaceOnUse" x1="38.7067" x2="9.08993" y1="24.0014" y2="24.0014"><stop offset="0" stop-color="#f9dd4d"/><stop offset=".376" stop-color="#f1bf44"/><stop offset=".762" stop-color="#eaa73d"/><stop offset="1" stop-color="#e89e3a"/></linearGradient><linearGradient id="b" gradientUnits="userSpaceOnUse" x1="31.0212" x2="3.78831" y1="26.7478" y2="54.5966"><stop offset="0" stop-color="#d44845"/><stop offset="1" stop-color="#b62e66"/></linearGradient><linearGradient id="c" gradientUnits="userSpaceOnUse" x1="3.04066" x2="25.275" y1="-6.10822" y2="16.6297"><stop offset="0" stop-color="#49946a"/><stop offset=".39" stop-color="#69a669"/><stop offset=".768" stop-color="#81b367"/><stop offset="1" stop-color="#8ab867"/></linearGradient><path d="m159.875.0424805h-153.12712c-3.38293 0-6.125321 2.6816595-6.125321 5.9896595v35.93616c0 3.308 2.742391 5.9897 6.125321 5.9897h153.12712c3.382 0 6.125-2.6817 6.125-5.9897v-35.93616c0-3.308-2.743-5.9896595-6.125-5.9896595z" fill="#000"/><path d="m159.874 1.00108c1.364.00142 2.672.53194 3.636 1.47513.965.9432 1.507 2.22204 1.509 3.55592v35.93607c-.002 1.3339-.545 2.6126-1.509 3.5557-.965.9431-2.272 1.4737-3.636 1.4754h-153.12612c-1.36402-.0017-2.67169-.5323-3.6362-1.4754s-1.50711-2.2218-1.50881-3.5557v-35.93607c.00146-1.33388.54399-2.61272 1.50855-3.55592.96456-.94319 2.27236-1.47371 3.63646-1.47513zm0-.9585995h-153.12612c-1.62312.0045039-3.17845.6370015-4.32617 1.7592995-1.14773 1.12231-1.794545 2.64318-1.799151 4.23035v35.93607c.004848 1.5871.651771 3.1077 1.799471 4.2298s2.70288 1.7545 4.32585 1.759h153.12612c1.622-.0047 3.177-.6372 4.325-1.7593 1.147-1.1221 1.794-2.6426 1.799-4.2295v-35.93607c-.005-1.58701-.651-3.10775-1.799-4.23003-1.147-1.122277-2.702-1.7548786-4.325-1.7596195z" fill="#808080"/><g fill="#fff"><path d="m58.7115 12.3123c.0223.4395-.0472.8788-.2042 1.2912s-.3983.7892-.709 1.1075c-.3481.3533-.7686.6307-1.2339.814s-.965.2684-1.4664.2497c-.5044.0045-1.0046-.0897-1.4713-.277-.4666-.1873-.8903-.4639-1.246-.8136-.3558-.3497-.6365-.7655-.8255-1.2228-.1891-.4573-.2828-.9469-.2755-1.4401-.0073-.4933.0864-.983.2755-1.4403.189-.4574.4697-.87317.8254-1.22295s.7794-.62649 1.2461-.81389c.4666-.18739.9669-.28168 1.4713-.27731.5187-.00147 1.0321.10096 1.5086.30096.4427.1751.8366.45036 1.1494.80317l-.6431.62888c-.2462-.28339-.5556-.50767-.9045-.6555s-.7278-.21526-1.1076-.19708c-.3827-.00192-.7618.07176-1.1147.21663-.3528.14486-.6721.35792-.9387.6264-.2666.26849-.4749.58679-.6126.93599-.1377.3491-.2018.7219-.1886 1.0959-.0086.5595.1528 1.109.4638 1.5787.311.4698.7576.8387 1.2833 1.06.5256.2213 1.1066.2851 1.6693.1831.5628-.1019 1.0819-.3648 1.4916-.7555.3767-.3978.5951-.9145.6156-1.4563h-2.669v-.8634h3.562c.0325.1795.0488.3613.0487.5436z" stroke="#fff" stroke-miterlimit="10" stroke-width=".310666"/><path d="m64.3575 9.31184h-3.347v2.27836h3.0181v.8633h-3.0181v2.2793h3.347v.8831h-4.2906v-7.18719h4.2906z" stroke="#fff" stroke-miterlimit="10" stroke-width=".310666"/><path d="m68.3402 15.6159h-.9454v-6.30406h-2.0525v-.88313h5.0531v.88313h-2.0524z" stroke="#fff" stroke-miterlimit="10" stroke-width=".310666"/><path d="m74.0475 15.6159v-7.18719h.9444v7.18719z" stroke="#fff" stroke-miterlimit="10" stroke-width=".310666"/><path d="m79.1814 15.6159h-.9454v-6.30406h-2.0525v-.88313h5.0531v.88313h-2.0525z" stroke="#fff" stroke-miterlimit="10" stroke-width=".310666"/><path d="m90.7954 14.6855c-.7156.6973-1.6845 1.0888-2.6947 1.0888s-1.9792-.3915-2.6947-1.0888c-.3538-.3506-.6318-.7672-.8177-1.2249-.186-.4578-.2759-.9474-.2646-1.4398-.0114-.4925.0785-.9823.2644-1.4402.186-.4579.4641-.87455.8179-1.22529.3538-.34564.7738-.6197 1.236-.8065.4621-.18681.9574-.28271 1.4575-.28221s.9952.09739 1.457.28512c.4618.18774.8812.46263 1.2343.80898.3543.34957.6331.7652.8199 1.2221.1869.457.278.946.2679 1.438.0108.4925-.0795.982-.2656 1.4397-.186.4577-.4641.8742-.8176 1.225zm-4.6921-.6019c.53.5171 1.2482.8076 1.9969.8076.7488 0 1.4669-.2905 1.9969-.8076.2721-.2725.4847-.5961.6251-.9513s.2056-.7345.1917-1.115c.0137-.3806-.0515-.7599-.1919-1.115-.1404-.3552-.353-.6788-.6249-.95136-.53-.51717-1.2481-.80763-1.9969-.80763-.7487 0-1.4669.29046-1.9969.80763-.2716.27276-.4839.59636-.6241.95156-.1403.3551-.2055.7343-.1917 1.1148-.0139.3804.0513.7597.1915 1.1148s.3526.6788.6243.9515z" stroke="#fff" stroke-miterlimit="10" stroke-width=".310666"/><path d="m93.2034 15.6159v-7.18719h1.1503l3.5721 5.59069h.0404l-.0404-1.3853v-4.20539h.9426v7.18719h-.9858l-3.7366-5.86205h-.0413l.0413 1.38535v4.4767z" stroke="#fff" stroke-miterlimit="10" stroke-width=".310666"/><path d="m84.0902 26.0955c-1.0296.0039-2.0349.306-2.8891.8682-.8541.5622-1.5188 1.3593-1.9101 2.2906-.3912.9313-.4915 1.955-.2882 2.942s.7011 1.893 1.4306 2.6035c.7294.7106 1.6579 1.1938 2.668 1.3888s2.0567.093 3.0076-.2932c.9508-.3862 1.7634-1.0392 2.335-1.8766s.8767-1.8217.8767-2.8285c.0102-.6735-.1182-1.3421-.3777-1.9661-.2595-.6239-.6448-1.1904-1.1328-1.6658s-1.0688-.8499-1.7079-1.1012-1.3233-.3743-2.0121-.3617zm0 8.1817c-.6339.0442-1.2669-.0993-1.8163-.4117-.5495-.3125-.99-.7795-1.2642-1.3402s-.3694-1.1892-.2732-1.8035c.0961-.6144.3793-1.1862.8125-1.6411.4331-.4548.9963-.7715 1.6162-.909.6199-.1374 1.2677-.0892 1.8591.1384.5915.2276 1.0991.6241 1.4569 1.1378s.5491 1.1209.549 1.7424c.0195.3928-.0416.7855-.1797 1.1548-.1381.3694-.3503.708-.6243.9959s-.6041.5193-.9709.6806c-.3669.1612-.763.2491-1.1651.2583zm-11.4063-8.1817c-1.0296.0037-2.0351.3057-2.8894.8678-.8542.5621-1.519 1.3591-1.9104 2.2903-.3914.9313-.4919 1.9551-.2886 2.9422.2032.987.7009 1.8931 1.4303 2.6037.7295.7106 1.6579 1.194 2.668 1.3891 1.0102.195 2.0568.093 3.0077-.2931.9509-.3862 1.7635-1.0392 2.3352-1.8766.5717-.8375.8767-1.8217.8768-2.8286.0102-.6734-.1182-1.342-.3777-1.9659-.2594-.6238-.6446-1.1903-1.1325-1.6657-.4879-.4753-1.0686-.8498-1.7076-1.1012s-1.3231-.3745-2.0118-.362zm0 8.1817c-.634.0442-1.2669-.0993-1.8163-.4117-.5495-.3125-.99-.7795-1.2642-1.3402s-.3694-1.1892-.2732-1.8035c.0961-.6144.3793-1.1862.8124-1.6411.4332-.4548.9964-.7715 1.6163-.909.6198-.1374 1.2677-.0892 1.8591.1384.5915.2276 1.0991.6241 1.4569 1.1378s.5491 1.1209.549 1.7424c.0195.3928-.0416.7855-.1797 1.1548-.1381.3694-.3504.708-.6243.9959-.274.2879-.6041.5193-.971.6806-.3668.1612-.7629.2491-1.165.2583zm-13.5718-6.6185v2.1607h5.2893c-.0762 1.0137-.5003 1.9726-1.2036 2.7212-.53.5285-1.1675.9424-1.8712 1.2151-.7037.2726-1.4581.398-2.2145.3679-1.5595 0-3.0551-.6058-4.1578-1.6841s-1.7222-2.5407-1.7222-4.0657c0-1.5249.6195-2.9874 1.7222-4.0657 1.1027-1.0782 2.5983-1.684 4.1578-1.684 1.4848-.0189 2.9174.5357 3.9865 1.5434l1.5619-1.5273c-.7293-.7062-1.5955-1.263-2.5478-1.6376-.9523-.3745-1.9715-.5594-2.9978-.5437-1.0699-.0111-2.1315.1853-3.1232.578-.9918.3926-1.8941.9737-2.6547 1.7095-.7606.7359-1.3644 1.612-1.7765 2.5775-.412.9656-.6242 2.0014-.6242 3.0477 0 1.0462.2122 2.0821.6242 3.0477.4121.9655 1.0159 1.8416 1.7765 2.5774.7606.7359 1.6629 1.3169 2.6547 1.7096.9917.3926 2.0533.5891 3.1232.5779 1.048.0424 2.0933-.1337 3.0665-.5164s1.8521-.9634 2.5783-1.7035c1.2889-1.3762 1.9758-3.191 1.9137-5.0562.0053-.4519-.0344-.9032-.1185-1.3476zm55.5039 1.6782c-.314-.9231-.91-1.7294-1.709-2.3094-.798-.5799-1.76-.9054-2.755-.932-.669.0041-1.331.1408-1.944.4021-.614.2612-1.167.6414-1.627 1.1176-.459.4762-.815 1.0386-1.045 1.6531-.231.6145-.332 1.2683-.297 1.922-.015.6699.108 1.3358.362 1.9581s.634 1.1881 1.116 1.6637c.483.4755 1.059.8511 1.693 1.1042.635.2531 1.315.3785 2 .3688.858.0046 1.704-.1993 2.462-.5935.758-.3943 1.403-.9664 1.879-1.665l-1.776-1.1581c-.266.4322-.642.7894-1.092 1.0364s-.957.3753-1.473.3723c-.531.0199-1.056-.1166-1.506-.3918-.451-.2752-.806-.6764-1.021-1.1516l6.972-2.8147zm-7.111 1.6998c-.025-.3708.026-.7427.151-1.0939.124-.3512.318-.6746.572-.9513.254-.2768.561-.5013.904-.6604.344-.1591.716-.2497 1.096-.2663.394-.0243.787.0649 1.13.2565.342.1916.62.4772.799.8216zm-5.661 4.9412h2.29v-14.9745h-2.29zm-3.7502-8.7423h-.078c-.348-.37-.7727-.6631-1.2458-.8597-.4731-.1967-.9837-.2922-1.4976-.2804-1.344.0552-2.6142.6161-3.5452 1.5655s-1.4508 2.2139-1.4508 3.5293.5198 2.5799 1.4508 3.5293 2.2012 1.5103 3.5452 1.5655c.5158.0133 1.0284-.0834 1.5021-.2834.4738-.2.8973-.4984 1.2413-.8746h.078v.7331c0 1.9495-1.0648 2.9908-2.7819 2.9908-.5723-.0133-1.1276-.1929-1.5951-.516-.4674-.323-.8259-.7749-1.0298-1.2979l-1.9937.8085c.3759.8944 1.0163 1.6587 1.8391 2.1951.8228.5363 1.7906.8203 2.7795.8155 2.6837 0 4.9531-1.5444 4.9531-5.3078v-9.1421h-2.1712zm-2.6248 7.0443c-.7909-.066-1.5276-.4199-2.0645-.9916s-.8347-1.3196-.8347-2.0957c0-.7762.2978-1.5241.8347-2.0958s1.2736-.9256 2.0645-.9916c.3934.0194.7788.1159 1.1333.2838s.6709.4037.9304.6935.4568.6276.5802.9934.1703.7521.1381 1.136c.0308.3816-.0174.7654-.1417 1.1284-.1244.363-.3223.6977-.5821.9841-.2597.2864-.5759.5187-.9295.6829-.3537.1641-.7376.2569-1.1287.2726zm29.867-13.2765h-5.478v14.9745h2.286v-5.6725h3.192c.647.0352 1.294-.059 1.902-.2769.609-.2178 1.165-.5547 1.636-.9901.471-.4353.845-.9599 1.102-1.5418.256-.5819.388-1.2087.388-1.8422s-.132-1.2604-.388-1.8422c-.257-.5819-.631-1.1065-1.102-1.5419-.471-.4353-1.027-.7722-1.636-.9901-.608-.2178-1.255-.312-1.902-.2768zm.059 7.2177h-3.251v-5.1335h3.251c.35-.009.699.0507 1.026.1756.326.1249.624.3125.875.5517.251.2393.451.5253.587.8412.137.3159.207.6554.207.9983s-.07.6823-.207.9982c-.136.316-.336.602-.587.8412-.251.2393-.549.4269-.875.5518-.327.1249-.676.1846-1.026.1755zm14.126-2.1508c-.834-.0476-1.664.144-2.389.5513-.724.4072-1.311 1.0125-1.689 1.7414l2.03.8284c.201-.3618.505-.6583.876-.8533.371-.1949.792-.28 1.212-.2446.579-.0542 1.157.1179 1.608.4787.45.3609.736.8812.795 1.4475v.1545c-.734-.3819-1.553-.5807-2.384-.5785-2.187 0-4.41 1.1751-4.41 3.3716 0 2.0035 1.793 3.2945 3.803 3.2945.575.0332 1.149-.0851 1.662-.3427s.946-.6449 1.253-1.1217h.079v1.1562h2.205v-5.7407c0-2.6593-2.03-4.1426-4.65-4.1426zm-.275 8.2069c-.749 0-1.794-.3656-1.794-1.2712 0-1.1563 1.301-1.5992 2.424-1.5992.729-.0191 1.451.1541 2.088.5013-.084.6493-.405 1.247-.905 1.6825-.499.4355-1.143.6794-1.812.6866zm12.963-7.879-2.62 6.4919h-.079l-2.719-6.4919h-2.462l4.078 9.0739-2.325 5.0472h2.384l6.285-14.1211zm-20.587 9.5797h2.285v-14.9745h-2.285z"/></g><path d="m13.406 9.08263c-.4017.46921-.6045 1.07097-.5668 1.68177v26.4715c-.0377.6108.1651 1.2126.5668 1.6818l.0919.0898 15.1594-14.8236v-.3504l-15.1594-14.82813z" fill="#85c5ec"/><path d="m33.7143 29.1205-5.0532-4.9412v-.3504l5.0532-4.9412.1139.0638 5.9893 3.3241c1.7098.9505 1.7098 2.5056 0 3.4561l-5.9893 3.3241z" fill="url(#a)"/><path d="m33.8298 29.0558-5.1698-5.0553-15.2513 14.9135c.3485.3006.7936.4724 1.2581.4857s.9191-.1328 1.285-.4129z" fill="url(#b)"/><path d="m33.8298 18.9437-17.8807-9.93451c-.366-.27996-.8205-.42594-1.285-.41265-.4644.01329-.9095.18501-1.2581.48542l15.2513 14.91344z" fill="url(#c)"/></svg>